<?xml version="1.0" standalone="no"?><!DOCTYPE svg PUBLIC "-//W3C//DTD SVG 1.1//EN" "http://www.w3.org/Graphics/SVG/1.1/DTD/svg11.dtd"><svg t="1630056580378" class="icon" viewBox="0 0 1024 1024" version="1.1" xmlns="http://www.w3.org/2000/svg" p-id="4471" xmlns:xlink="http://www.w3.org/1999/xlink" width="32" height="32"><defs><style type="text/css"></style></defs><path d="M629.510344 363.487571l-59.232033 58.972113c0.25071 0.112564 0.432859 0.25071 0.567935 0.363274l-31.003108 30.43108c-7.049556-2.706645-14.625092-4.344958-22.608927-4.344958-34.871205 0-63.12162 28.246321-63.12162 63.111386 0 34.888602 28.250414 63.11241 63.12162 63.11241 34.846646 0 63.075571-28.223808 63.075571-63.11241 0-8.027837-1.63729-15.623839-4.344958-22.651906l69.239967-69.229734-0.045025-0.022513 20.380166-20.377096 123.69623 18.807345L937.997254 269.830495l-155.586544-22.26612-72.65167 72.345702-0.205685-0.181125 73.517387-73.461105L759.482511 91.296309 610.721419 240.058424 629.510344 363.487571zM800.10879 451.322036l-13.147438 16.488533c3.046383 16.261359 3.774977 27.086915 3.774977 44.189432 0 151.015436-122.467239 273.441742-273.479605 273.441742-151.08195 0-273.526677-122.426307-273.526677-273.441742 0-151.035902 122.467239-274.941909 273.504164-273.462209 14.874779 0.158612 29.161157 0.477884 37.666878 2.001587l120.011304-118.424156c-48.746214-19.71911-101.880365-30.817889-157.678182-30.817889-232.401024 0-420.765089 188.358949-420.765089 420.703691 0 232.367255 188.362019 420.703691 420.765089 420.703691 232.400001 0 420.765089-188.334389 420.765089-420.703691 0-55.969733-11.168364-109.256356-30.980595-158.086481L800.10879 451.322036zM517.234211 407.495878c6.550183 0 12.941753 0.773619 19.197224 1.909489l54.339606-54.514591-10.030447-65.88557c-20.244067-5.777587-41.466414-9.052167-63.506383-9.052167-128.177288 0-232.082776 103.890138-232.082776 232.047983 0 128.158868 103.905488 232.026494 232.082776 232.026494 128.175241 0 232.05924-103.867626 232.05924-232.026494 0-20.468171-2.911306-40.232306-7.892761-59.154261l-67.807339-13.82896-53.749158 53.788044c1.159406 6.209422 1.909489 12.599969 1.909489 19.195178 0 57.723679-46.788629 104.505146-104.518448 104.505146-57.731866 0-104.543008-46.782489-104.543008-104.505146C412.69018 454.278367 459.502345 407.495878 517.234211 407.495878z" p-id="4472"></path></svg>