<?xml version="1.0" standalone="no"?><!DOCTYPE svg PUBLIC "-//W3C//DTD SVG 1.1//EN" "http://www.w3.org/Graphics/SVG/1.1/DTD/svg11.dtd"><svg t="1630056590624" class="icon" viewBox="0 0 1024 1024" version="1.1" xmlns="http://www.w3.org/2000/svg" p-id="4605" xmlns:xlink="http://www.w3.org/1999/xlink" width="32" height="32"><defs><style type="text/css"></style></defs><path d="M506.999103 333.48321l0-0.679475c16.005532 0 28.982078-12.976546 28.982078-28.982078 0-16.007579-12.976546-28.982078-28.982078-28.982078-128.34511 0-232.791927 104.446817-232.791927 232.791927s104.446817 232.791927 232.791927 232.791927 232.791927-104.446817 232.791927-232.791927c0-10.846022-0.785899-21.965268-2.356674-32.992415l-1.170662 0.098237c-2.685155-12.20395-13.050224-21.519106-26.058492-21.519106-14.589276 0-26.281573 11.55415-26.959002 25.977651l-0.466628 0.039909c2.537799 11.933797 0.483001 16.190751 0.483001 28.396747 0 96.04752-80.21595 174.208671-176.263469 174.208671-96.016821 0-174.148295-78.161151-174.148295-174.208671-0.030699-46.527686 18.09717-90.277096 50.969858-123.148761C416.72303 351.581404 460.471416 333.48321 506.999103 333.48321z" p-id="4606"></path><path d="M588.544327 245.895363l17.553795 115.142413-0.574075 0.543376-96.500844 96.561219-1.239224-0.091074c-0.272199-0.030699-0.543376-0.060375-0.785899-0.060375-27.373441 0-49.67026 22.267143-49.67026 49.63956 0 0.272199 0.030699 0.543376 0.060375 0.815575l0.060375 0.725524 1.873674 10.393721c4.411473 17.705244 18.218944 31.451316 36.014238 35.802414l10.271948 1.842974c0.483001 0.030699 0.967024 0.091074 1.38965 0.091074 27.373441 0 49.63956-22.296819 49.63956-49.67026 0-0.181125-0.029676-0.39295-0.029676-0.574075-0.030699-0.301875-0.060375-0.574075-0.060375-0.87595l0-0.63445 96.983845-97.014544 119.613238 18.218944 3.232624-3.172249L932.913469 267.014356l-160.76345-23.022343-0.181125-1.11745L747.495502 81.838913l-12.538571 12.507872L587.849502 241.424538 588.544327 245.895363zM642.98831 256.682034l64.715931-61.664432 0.483001 2.839675 16.405645 93.780897 11.450796 0.453325 87.980797 12.024871-2.387373 2.235924-67.163679 62.178131-0.694825-0.091074-97.104595-11.330046-0.181125-1.177825-14.07967-98.706069L642.98831 256.682034z" p-id="4607"></path><path d="M906.571521 409.018557c-4.693906-8.807596-13.667278-15.009855-24.344454-15.009855-15.416108 0-27.912723 12.496615-27.912723 27.912723 0 5.03262 1.693572 9.502421 4.02364 13.579273l-0.080841 0.042979c5.891174 25.982768 6.042623 45.349861 6.042623 72.088852 0 197.019189-160.28045 357.299639-357.299639 357.299639-197.049888 0-357.330338-160.28045-357.330338-357.299639s160.28045-357.299639 357.330338-357.299639c26.799366 0 53.568033 2.991124 79.490425 8.882298l0.260943-0.923022c1.50119 0.2415 2.852978 0.893346 4.422729 0.893346 15.876596 0 28.747741-12.871145 28.747741-28.747741 0-12.205996-7.664563-22.488177-18.395976-26.659173-37.589107-10.995425-54.810327-12.05864-94.52484-12.05864-229.316779 0-415.913595 186.595792-415.913595 415.913595s186.595792 415.913595 415.913595 415.913595 415.912571-186.595792 415.912571-415.913595c0-39.850613-4.199649-61.121056-15.34857-99.159394L906.571521 409.018557z" p-id="4608"></path></svg>